<svg width="107" height="50" viewBox="0 0 107 50" fill="none" xmlns="http://www.w3.org/2000/svg">
<path d="M14.1512 27.8377V30.5414H3.85556V32.5867H13.5945V35.1521H3.85556V37.3013H14.1512V40.0741H0V27.8377H14.1512Z" fill="#296BFF"/>
<path d="M25.3786 37.25L30.6881 27.8389H35.0287L27.8902 40.0754H22.7424L15.9802 27.8389H20.2135L25.3786 37.25Z" fill="#296BFF"/>
<path d="M51.1335 27.8377V30.5414H40.8379V32.5867H50.5768V35.1521H40.8379V37.3013H51.1335V40.0741H36.9823V27.8377H51.1335Z" fill="#296BFF"/>
<path d="M60.3874 27.8377C61.7684 29.4668 63.1495 31.0793 64.4948 32.7251C65.7141 34.2159 66.9163 35.7413 68.1184 37.2654L68.0468 31.6505V27.8377H71.7062V40.0741H65.4822C63.9938 38.3233 62.5054 36.5725 61.0514 34.7705C59.9752 33.4359 58.9175 32.0668 57.8771 30.7143V40.0741H54.1819V27.8377H60.3874Z" fill="#296BFF"/>
<path d="M89.1192 27.8377V30.663H83.416V40.0741H79.4346V30.6797H73.8388V27.8377H89.1205H89.1192Z" fill="#296BFF"/>
<path d="M94.7865 36.0704C94.7865 36.3471 94.7865 36.5725 94.8767 36.7812C95.0198 37.1796 95.3962 37.3358 96.2219 37.405C97.0291 37.4395 97.8177 37.4741 98.6249 37.4921C99.4864 37.5087 100.347 37.4741 101.225 37.4575C101.351 37.4575 101.907 37.51 102.301 37.3537C102.696 37.2154 103.037 36.8337 103.037 36.4175C103.037 36.3138 103.019 36.105 102.858 35.8808C102.553 35.4646 102.158 35.4825 101.262 35.3609C99.3976 35.3263 97.5314 35.3083 95.6852 35.2046C95.0927 35.17 94.5016 35.1175 93.9091 35.0829C93.7302 35.0484 93.5327 35.0304 93.3525 34.9958C93.102 34.9613 92.2219 34.8229 91.6122 34.1813C91.2173 33.765 90.8594 33.0196 90.8594 31.7721C90.8594 31.685 90.8594 30.3505 91.1828 29.5705C91.3087 29.2759 91.4876 29.0159 91.7024 28.7905C92.438 28.0284 93.4068 27.9068 94.4645 27.7851C95.8455 27.7326 97.2266 27.6814 98.6076 27.6814C100.132 27.6814 101.657 27.7685 103.182 27.8376L103.881 27.9414C104.15 27.9759 105.029 28.1322 105.71 28.7393C106.589 29.5193 106.589 30.6105 106.553 31.6863L102.715 31.6684C102.482 30.7322 102.303 30.6105 101.28 30.5067C100.347 30.4542 99.3962 30.4196 98.4632 30.4196C97.7276 30.4196 97.0105 30.4542 96.275 30.4722C95.7912 30.4901 95.3419 30.5067 95.037 30.8884C94.9827 30.9576 94.8223 31.183 94.8223 31.443C94.8223 31.703 94.9655 31.9105 95.037 31.9796C95.3777 32.3959 95.8084 32.4125 96.2922 32.4471L103.897 32.7071C104.938 32.8108 105.333 32.9492 105.781 33.2617C106.426 33.7125 107 34.5091 107 36.2945C107 37.6816 106.75 38.3399 106.355 38.8766C106.193 39.0841 106.05 39.2403 105.835 39.3966C105.243 39.8128 104.471 39.9332 103.683 40.0549C102.123 40.142 100.58 40.2111 99.0198 40.2111C97.3339 40.2111 95.648 40.1074 93.9436 40.0203C93.1006 39.8986 92.1503 39.7424 91.5221 39.0841C90.8051 38.3387 90.8223 36.9695 90.8223 36.0512L94.7865 36.0691V36.0704Z" fill="#296BFF"/>
<path d="M1.01396 47.2219C1.01396 46.3433 1.01396 46.1806 1.00734 45.9962C0.992758 45.799 0.930465 45.7311 0.796601 45.6901C0.726355 45.6696 0.648157 45.6632 0.571284 45.6632C0.507666 45.6632 0.473206 45.6491 0.473206 45.5953C0.473206 45.5608 0.522245 45.5479 0.621649 45.5479C0.853592 45.5479 1.27639 45.562 1.45267 45.562C1.60774 45.562 2.00933 45.5479 2.24923 45.5479C2.32742 45.5479 2.37646 45.562 2.37646 45.5953C2.37646 45.6504 2.34068 45.6632 2.27839 45.6632C2.21609 45.6632 2.16573 45.6696 2.09548 45.6837C1.92583 45.7106 1.87679 45.7926 1.86354 45.9962C1.84896 46.1794 1.84896 46.3433 1.84896 47.2219V48.2427C1.84896 48.8011 1.84896 49.2635 1.87679 49.5094C1.898 49.6656 1.94041 49.754 2.12332 49.7822C2.20814 49.7963 2.34863 49.8027 2.44008 49.8027C2.51033 49.8027 2.53816 49.8372 2.53816 49.8641C2.53816 49.9051 2.48912 49.9256 2.41888 49.9256C2.01066 49.9256 1.58786 49.9051 1.41821 49.9051C1.27772 49.9051 0.854918 49.9256 0.608395 49.9256C0.531523 49.9256 0.48911 49.9051 0.48911 49.8641C0.48911 49.8372 0.510316 49.8027 0.588514 49.8027C0.679966 49.8027 0.750212 49.7963 0.807204 49.7822C0.934441 49.7553 0.968901 49.6733 0.990107 49.503C1.01794 49.2647 1.01794 48.8011 1.01794 48.244V47.2232L1.01396 47.2219Z" fill="#062643"/>
<path d="M11.3189 49.1354C11.3334 49.5849 11.4103 49.7207 11.5296 49.7617C11.6356 49.7963 11.7549 49.8027 11.8543 49.8027C11.9246 49.8027 11.9603 49.8295 11.9603 49.8641C11.9603 49.9115 11.9034 49.9256 11.8199 49.9256C11.4183 49.9256 11.1293 49.9051 11.0167 49.9051C10.9597 49.9051 10.6641 49.9256 10.3473 49.9256C10.2625 49.9256 10.2069 49.9192 10.2069 49.8641C10.2069 49.8295 10.2493 49.8027 10.3049 49.8027C10.3898 49.8027 10.5024 49.7963 10.5872 49.7758C10.7489 49.7348 10.7701 49.5785 10.7781 49.0739L10.8351 45.6427C10.8351 45.5274 10.8775 45.4455 10.9411 45.4455C11.0193 45.4455 11.1028 45.5338 11.2088 45.6363C11.287 45.7119 12.2161 46.6302 13.1187 47.4819C13.5415 47.8841 14.3659 48.7012 14.4574 48.7819H14.4852L14.4216 46.2088C14.415 45.8553 14.358 45.7529 14.2109 45.6978C14.1194 45.6632 13.971 45.6632 13.8875 45.6632C13.8093 45.6632 13.7881 45.6363 13.7881 45.6017C13.7881 45.5543 13.8517 45.5467 13.9431 45.5467C14.2665 45.5467 14.5979 45.5607 14.7317 45.5607C14.802 45.5607 15.0339 45.5467 15.3374 45.5467C15.4223 45.5467 15.4779 45.5531 15.4779 45.6017C15.4779 45.6363 15.4421 45.6632 15.3719 45.6632C15.3083 45.6632 15.2592 45.6632 15.1824 45.6837C15.0127 45.7311 14.9637 45.8335 14.957 46.1601L14.8868 49.8091C14.8868 49.9384 14.8378 49.9922 14.7887 49.9922C14.6827 49.9922 14.5979 49.9307 14.5356 49.8693C14.1486 49.5222 13.3732 48.8075 12.7251 48.2017C12.0491 47.5754 11.3931 46.8748 11.2738 46.7724H11.2526L11.3228 49.1341L11.3189 49.1354Z" fill="#062643"/>
<path d="M33.3031 45.5671C33.3177 45.4711 33.3733 45.4173 33.4224 45.4173C33.486 45.4173 33.5284 45.4442 33.6119 45.6017L35.2753 48.8292L36.9373 45.5607C36.9863 45.4659 37.0433 45.4173 37.099 45.4173C37.148 45.4173 37.2183 45.4787 37.2395 45.6017L37.8028 49.1763C37.8598 49.5375 37.9154 49.6938 38.1063 49.7488C38.2826 49.7962 38.3807 49.8039 38.4589 49.8039C38.5158 49.8039 38.5583 49.8244 38.5583 49.859C38.5583 49.9064 38.488 49.9269 38.3966 49.9269C38.2415 49.9269 37.3614 49.9 37.1136 49.8859C36.9651 49.8795 36.9307 49.8513 36.9307 49.818C36.9307 49.7911 36.9585 49.7706 37.0009 49.7565C37.0367 49.7424 37.05 49.6746 37.0288 49.5119L36.6842 47.0067H36.663L35.3309 49.5939C35.1904 49.8667 35.1547 49.9205 35.0844 49.9205C35.0075 49.9205 34.936 49.8052 34.8379 49.6272C34.6894 49.362 34.1964 48.477 34.1262 48.3131C34.0771 48.2042 33.71 47.4755 33.5059 47.0746H33.4847L33.1891 49.3352C33.1745 49.4376 33.1679 49.5119 33.1679 49.608C33.1679 49.7168 33.2527 49.7578 33.3588 49.7783C33.4648 49.7988 33.5205 49.8052 33.5774 49.8052C33.6344 49.8052 33.6755 49.8321 33.6755 49.8603C33.6755 49.9153 33.6185 49.9281 33.5271 49.9281C33.266 49.9281 32.985 49.9077 32.8723 49.9077C32.7531 49.9077 32.4562 49.9281 32.2587 49.9281C32.1951 49.9281 32.146 49.9141 32.146 49.8603C32.146 49.8334 32.1818 49.8052 32.2454 49.8052C32.2945 49.8052 32.3369 49.8052 32.435 49.7911C32.6046 49.7706 32.6603 49.5388 32.6881 49.348L33.3004 45.5697L33.3031 45.5671Z" fill="#062643"/>
<path d="M46.6246 47.2219C46.6246 46.3433 46.6246 46.1806 46.6179 45.9962C46.6034 45.799 46.5398 45.7311 46.4072 45.6901C46.337 45.6696 46.2588 45.6632 46.1819 45.6632C46.1183 45.6632 46.0838 45.6491 46.0838 45.5953C46.0838 45.5608 46.1329 45.5479 46.2323 45.5479C46.4642 45.5479 46.887 45.562 47.0633 45.562C47.2183 45.562 47.6199 45.5479 47.8598 45.5479C47.938 45.5479 47.9871 45.562 47.9871 45.5953C47.9871 45.6504 47.9513 45.6632 47.889 45.6632C47.8267 45.6632 47.7763 45.6696 47.7061 45.6837C47.5364 45.7106 47.4874 45.7926 47.4741 45.9962C47.4596 46.1794 47.4596 46.3433 47.4596 47.2219V48.2427C47.4596 48.8011 47.4596 49.2635 47.4874 49.5094C47.5086 49.6656 47.551 49.754 47.7339 49.7822C47.8187 49.7963 47.9592 49.8027 48.0507 49.8027C48.1209 49.8027 48.1488 49.8372 48.1488 49.8641C48.1488 49.9051 48.0997 49.9256 48.0295 49.9256C47.6213 49.9256 47.1985 49.9051 47.0288 49.9051C46.8883 49.9051 46.4655 49.9256 46.219 49.9256C46.1421 49.9256 46.0997 49.9051 46.0997 49.8641C46.0997 49.8372 46.1209 49.8027 46.1991 49.8027C46.2906 49.8027 46.3608 49.7963 46.4178 49.7822C46.5451 49.7553 46.5795 49.6733 46.6007 49.503C46.6286 49.2647 46.6285 48.8011 46.6285 48.244V47.2232L46.6246 47.2219Z" fill="#062643"/>
<path d="M57.112 48.6898C57.1266 49.1394 57.2035 49.2752 57.3228 49.3161C57.4288 49.3507 57.5481 49.3571 57.6475 49.3571C57.7177 49.3571 57.7535 49.384 57.7535 49.4186C57.7535 49.466 57.6965 49.4801 57.613 49.4801C57.2114 49.4801 56.9225 49.4596 56.8098 49.4596C56.7542 49.4596 56.4573 49.4801 56.1405 49.4801C56.0557 49.4801 56 49.4737 56 49.4186C56 49.384 56.0424 49.3571 56.0981 49.3571C56.1829 49.3571 56.2956 49.3507 56.3804 49.3302C56.5421 49.2893 56.5633 49.133 56.5713 48.6284L56.6283 45.1972C56.6283 45.0819 56.6707 44.9999 56.7343 44.9999C56.8112 44.9999 56.896 45.0883 57.002 45.1908C57.0802 45.2663 58.0093 46.1847 58.9119 47.0364C59.3347 47.4385 60.1591 48.2557 60.2505 48.3364H60.2784L60.2148 45.7633C60.2081 45.4098 60.1511 45.3073 60.004 45.2523C59.9126 45.2177 59.7641 45.2177 59.6806 45.2177C59.6024 45.2177 59.5812 45.1908 59.5812 45.1562C59.5812 45.1088 59.6448 45.1011 59.7363 45.1011C60.0597 45.1011 60.391 45.1152 60.5249 45.1152C60.5952 45.1152 60.8271 45.1011 61.1306 45.1011C61.2154 45.1011 61.2711 45.1075 61.2711 45.1562C61.2711 45.1908 61.2353 45.2177 61.1651 45.2177C61.1014 45.2177 61.0524 45.2177 60.9755 45.2382C60.8059 45.2856 60.7569 45.388 60.7502 45.7146L60.68 49.3635C60.68 49.4929 60.6309 49.5467 60.5819 49.5467C60.4759 49.5467 60.391 49.4852 60.3287 49.4237C59.9417 49.0766 59.1664 48.362 58.5183 47.7562C57.8423 47.1299 57.1863 46.4293 57.067 46.3268H57.0458L57.116 48.6886L57.112 48.6898Z" fill="#062643"/>
<path d="M69.2503 47.2219C69.2503 46.3433 69.2569 46.1806 69.2437 45.9962C69.2291 45.7926 69.1734 45.7375 68.9759 45.6837C68.9269 45.6696 68.8209 45.6632 68.736 45.6632C68.6658 45.6632 68.63 45.6427 68.63 45.6017C68.63 45.5607 68.6724 45.5466 68.7639 45.5466C69.0952 45.5466 69.5114 45.5607 69.6943 45.5607C69.8494 45.5607 70.2655 45.5466 70.4908 45.5466C70.5823 45.5466 70.6247 45.5607 70.6247 45.6017C70.6247 45.6427 70.5889 45.6632 70.5266 45.6632C70.4564 45.6632 70.4206 45.6696 70.3437 45.6837C70.182 45.7106 70.133 45.7926 70.1184 45.9962C70.1038 46.1794 70.1038 46.3433 70.1038 47.2219V48.0326C70.1038 48.8767 70.2735 49.2033 70.5757 49.4351C70.85 49.6464 71.1469 49.6669 71.3577 49.6669C71.6254 49.6669 71.9421 49.5926 72.1887 49.3608C72.5333 49.0483 72.5479 48.5437 72.5479 47.9519V47.2232C72.5479 46.3446 72.5412 46.1819 72.5333 45.9975C72.5187 45.8002 72.4697 45.7388 72.2722 45.685C72.2231 45.6709 72.1171 45.6645 72.0469 45.6645C71.9766 45.6645 71.9408 45.644 71.9408 45.603C71.9408 45.562 71.9832 45.5479 72.0681 45.5479C72.3848 45.5479 72.801 45.562 72.8076 45.562C72.8779 45.562 73.294 45.5479 73.5339 45.5479C73.6188 45.5479 73.6612 45.562 73.6612 45.603C73.6612 45.644 73.6254 45.6645 73.5551 45.6645C73.4849 45.6645 73.4491 45.6709 73.3722 45.685C73.2026 45.7119 73.1602 45.7938 73.1469 45.9975C73.1403 46.1806 73.1324 46.3446 73.1324 47.2232V47.8431C73.1324 48.4899 73.0621 49.1712 72.5399 49.5862C72.1025 49.9397 71.6307 50.0012 71.2291 50.0012C70.9044 50.0012 70.2642 49.9871 69.8136 49.6067C69.4968 49.3416 69.2503 48.9125 69.2503 48.0749V47.2232V47.2219Z" fill="#062643"/>
<path d="M82.7481 45.9014L81.8256 45.9219C81.4664 45.9283 81.318 45.9693 81.2265 46.0986C81.1629 46.1806 81.1351 46.2549 81.1205 46.2959C81.1059 46.3432 81.0927 46.3714 81.0502 46.3714C81.0078 46.3714 80.9946 46.3368 80.9946 46.2766C80.9946 46.1806 81.1139 45.6235 81.1284 45.5748C81.143 45.4992 81.1642 45.4659 81.1987 45.4659C81.2477 45.4659 81.3113 45.5133 81.4664 45.5338C81.6493 45.5543 81.8826 45.5607 82.0867 45.5607H84.6023C84.7998 45.5607 84.9336 45.5466 85.0251 45.5338C85.1232 45.5197 85.1735 45.5069 85.1947 45.5069C85.2371 45.5069 85.2438 45.5415 85.2438 45.6299C85.2438 45.7528 85.2292 46.1819 85.2292 46.3317C85.2226 46.3932 85.208 46.4265 85.1722 46.4265C85.1232 46.4265 85.1086 46.3996 85.102 46.3112L85.0953 46.2497C85.0807 46.0999 84.919 45.9232 84.3624 45.9167L83.5804 45.9027V48.2439C83.5804 48.7754 83.587 49.2314 83.6162 49.4837C83.6374 49.6476 83.6732 49.7565 83.8561 49.7834C83.9409 49.7975 84.0814 49.8039 84.1729 49.8039C84.2431 49.8039 84.2709 49.8385 84.2709 49.8654C84.2709 49.9063 84.2219 49.9268 84.1516 49.9268C83.7434 49.9268 83.3273 49.9064 83.151 49.9064C83.0105 49.9064 82.5877 49.9268 82.3412 49.9268C82.263 49.9268 82.2219 49.9063 82.2219 49.8654C82.2219 49.8385 82.2431 49.8039 82.32 49.8039C82.4114 49.8039 82.4896 49.7975 82.5386 49.7834C82.6659 49.7565 82.7003 49.6476 82.7216 49.4773C82.7494 49.2327 82.7494 48.7754 82.7494 48.2452V45.9039L82.7481 45.9014Z" fill="#062643"/>
<path d="M93.4333 47.2219C93.4333 46.3433 93.4333 46.1807 93.4267 45.9962C93.4121 45.799 93.3565 45.7375 93.159 45.6837C93.1099 45.6696 93.0039 45.6632 92.9125 45.6632C92.8488 45.6632 92.8064 45.6427 92.8064 45.6018C92.8064 45.5608 92.8555 45.5467 92.9469 45.5467C93.2703 45.5467 93.6653 45.5608 93.8416 45.5608C94.039 45.5608 95.4121 45.5672 95.5328 45.5608C95.6454 45.5544 95.7435 45.5339 95.7939 45.5262C95.8296 45.5198 95.8641 45.4993 95.8919 45.4993C95.9277 45.4993 95.9343 45.5262 95.9343 45.5544C95.9343 45.5954 95.8986 45.6632 95.8853 45.9284C95.8787 45.9898 95.8641 46.2409 95.8495 46.31C95.8429 46.3369 95.8283 46.4048 95.7793 46.4048C95.7369 46.4048 95.7302 46.3779 95.7302 46.3305C95.7302 46.2895 95.7236 46.1871 95.6878 46.1192C95.6388 46.0167 95.5897 45.9348 95.2796 45.9079C95.1736 45.8938 94.434 45.881 94.3068 45.881C94.2789 45.881 94.2644 45.9015 94.2644 45.936V47.3654C94.2644 47.4 94.271 47.4269 94.3068 47.4269C94.4473 47.4269 95.2504 47.4269 95.3923 47.4128C95.5407 47.3987 95.6322 47.3859 95.6878 47.3244C95.7369 47.2834 95.7581 47.2501 95.7859 47.2501C95.8137 47.2501 95.8349 47.277 95.8349 47.3116C95.8349 47.3462 95.8204 47.4409 95.7859 47.7342C95.7713 47.8495 95.7581 48.0813 95.7581 48.1223C95.7581 48.1697 95.7514 48.2517 95.6945 48.2517C95.652 48.2517 95.6375 48.2312 95.6375 48.2043C95.6308 48.1428 95.6308 48.0685 95.6163 47.993C95.5805 47.8777 95.5036 47.7893 95.2717 47.7688C95.159 47.7547 94.4539 47.7419 94.3001 47.7419C94.2723 47.7419 94.2644 47.7688 94.2644 47.8034V48.2658C94.2644 48.463 94.2577 48.9535 94.2644 49.1239C94.2789 49.5184 94.4685 49.608 95.1033 49.608C95.265 49.608 95.5261 49.6016 95.6878 49.5324C95.8429 49.4646 95.9131 49.3416 95.9556 49.1034C95.9701 49.0419 95.9834 49.015 96.0258 49.015C96.0748 49.015 96.0828 49.0906 96.0828 49.1508C96.0828 49.2801 96.0338 49.6746 95.998 49.7912C95.9556 49.941 95.8999 49.941 95.6666 49.941C95.2014 49.941 94.8276 49.9346 94.5255 49.9205C94.2219 49.9141 93.99 49.9064 93.8071 49.9064C93.7369 49.9064 93.603 49.9128 93.4545 49.9128C93.3061 49.9192 93.151 49.9269 93.0251 49.9269C92.9482 49.9269 92.9058 49.9064 92.9058 49.8654C92.9058 49.8385 92.927 49.804 93.0052 49.804C93.0967 49.804 93.1669 49.7976 93.2239 49.7835C93.3512 49.7566 93.3856 49.6477 93.4068 49.4774C93.4347 49.2327 93.4347 48.7755 93.4347 48.2453V47.2245L93.4333 47.2219Z" fill="#062643"/>
<path d="M104.203 49.85C104.105 49.809 104.084 49.7821 104.084 49.6528C104.084 49.339 104.112 48.9791 104.12 48.883C104.12 48.7946 104.148 48.7332 104.198 48.7332C104.254 48.7332 104.262 48.787 104.262 48.8279C104.262 48.9022 104.283 49.0252 104.317 49.1276C104.451 49.5567 104.917 49.7001 105.304 49.7001C105.839 49.7001 106.162 49.3735 106.162 48.965C106.162 48.7127 106.099 48.4616 105.55 48.1479L105.191 47.9442C104.458 47.5292 104.218 47.1412 104.218 46.6301C104.218 45.9219 104.923 45.4659 105.782 45.4659C106.184 45.4659 106.5 45.5197 106.663 45.5607C106.72 45.5748 106.748 45.5953 106.748 45.635C106.748 45.7105 106.727 45.8732 106.727 46.3292C106.727 46.4521 106.699 46.5123 106.649 46.5123C106.606 46.5123 106.585 46.4777 106.585 46.4098C106.585 46.3548 106.557 46.178 106.423 46.0282C106.332 45.9193 106.135 45.7554 105.733 45.7554C105.289 45.7554 104.887 45.9795 104.887 46.3753C104.887 46.634 104.985 46.8376 105.542 47.1373L105.795 47.2731C106.613 47.7085 106.866 48.1517 106.866 48.6755C106.866 49.1046 106.697 49.4517 106.246 49.7578C105.95 49.9614 105.541 49.996 105.211 49.996C104.852 49.996 104.471 49.9614 104.203 49.8462V49.85Z" fill="#062643"/>
<path d="M36.6358 0C35.9771 1.35506 35.3243 2.71395 34.6962 4.08054C41.9009 4.09206 49.1071 4.08438 56.3104 4.08438C56.5596 4.1292 56.6193 3.87945 56.7111 3.73345C57.2941 2.48598 57.8886 1.24363 58.4832 0.00128077C51.2012 0.00512308 43.9192 0.00768462 36.6358 0.00128077V0Z" fill="#296BFF"/>
<path d="M33.0567 7.49885C32.4199 8.85647 31.7583 10.2064 31.1317 11.5679C38.4166 11.5653 45.7 11.5755 52.9849 11.5627C53.6174 10.2051 54.2717 8.85519 54.9129 7.49885C47.628 7.49373 40.3431 7.49629 33.0567 7.49885Z" fill="#296BFF"/>
<path d="M44.0752 14.9799C39.2123 14.9902 34.3493 14.9569 29.4864 14.9966C28.8525 16.3542 28.1909 17.7016 27.5628 19.0605C34.8448 19.0605 42.1268 19.0592 49.4102 19.0617C50.0558 17.7029 50.7101 16.3478 51.3426 14.9851C48.9206 14.9722 46.4971 14.9838 44.0752 14.9799Z" fill="#296BFF"/>
<path d="M54.1201 19.0618L60.041 7.49641L64.0937 19.0618H54.1201Z" fill="#296BFF"/>
<path d="M67.2093 19.0618L73.1317 7.49641L77.1829 19.0618H67.2093Z" fill="#296BFF"/>
<path d="M72.1961 0L66.2752 11.5654L62.2226 0H72.1961Z" fill="#296BFF"/>
<path d="M85.0667 0L79.1444 11.5654L75.0932 0H85.0667Z" fill="#296BFF"/>
</svg>
