<svg width="20" height="20" viewBox="0 0 20 20" fill="none" xmlns="http://www.w3.org/2000/svg">
<path d="M18.1028 13.5084C17.8893 13.1789 17.5331 12.9478 17.1419 12.8852L13.3514 12.2538C12.8976 12.1737 12.4346 12.3247 12.1059 12.6542L12.0259 12.7342C11.839 12.9211 11.5812 13.0012 11.3318 12.9478C10.6553 12.7968 10.0238 12.5566 9.43657 12.2179C7.88833 11.3462 6.99826 10.029 6.52696 9.08554C6.4377 8.89868 6.42018 8.69432 6.48275 8.49828C6.54531 8.30224 6.68712 8.14208 6.87397 8.04448C7.50543 7.73334 7.80825 6.98592 7.58552 6.31858L6.34842 2.60816C6.11736 1.93164 5.40496 1.53123 4.7026 1.70976C2.74478 2.19943 1.45516 4.0588 1.6954 6.03413C1.99821 8.52582 3.03926 12.0494 6.26001 14.7363C9.02697 17.0411 12.1151 17.6284 14.2239 17.7084H14.3841C16.2084 17.7084 17.8367 16.4538 18.2905 14.6387C18.3881 14.2558 18.3172 13.8379 18.0945 13.5084H18.1028ZM17.4271 14.4601C17.0709 15.8841 15.7362 16.8801 14.2681 16.8184C12.3019 16.7383 9.41903 16.1952 6.83808 14.0514C3.8392 11.5514 2.8699 8.25889 2.5846 5.92736C2.39775 4.39664 3.40292 2.95518 4.92446 2.57314C5.17389 2.51058 5.42246 2.65322 5.51172 2.89346L6.74881 6.60388C6.82889 6.85331 6.71294 7.13775 6.48188 7.25371C6.08147 7.44974 5.78784 7.79677 5.64519 8.22387C5.50255 8.64178 5.53842 9.09557 5.73445 9.48765C6.26832 10.5462 7.26517 12.0144 9.00026 13.002C9.65842 13.3757 10.3791 13.6519 11.1358 13.8204C11.6788 13.9446 12.2477 13.7761 12.6481 13.3666L12.7282 13.2865C12.8525 13.1622 13.0218 13.0996 13.1995 13.1355L16.99 13.767C17.141 13.7937 17.2661 13.8737 17.3545 13.998C17.4346 14.1223 17.4613 14.2741 17.4171 14.461L17.4271 14.4601Z" fill="#222222"/>
<path d="M10.184 8.04451L10.0773 8.93458C10.0598 9.08557 10.1215 9.23739 10.2374 9.33499C10.3534 9.43258 10.5136 9.45928 10.6554 9.41507L11.1717 9.23739C11.412 9.15731 11.6789 9.17482 11.91 9.29078C12.4613 9.56689 13.067 9.70036 13.6809 9.70036C13.9837 9.70036 14.2857 9.66449 14.5885 9.60276C16.1459 9.26493 17.3646 7.96527 17.6316 6.38201C17.8451 5.08321 17.4447 3.81024 16.5371 2.88514C15.6204 1.96005 14.3483 1.54128 13.0495 1.7465C11.3678 2.00425 9.99719 3.36563 9.73025 5.04733C9.59679 5.90153 9.73025 6.74654 10.104 7.51233C10.2016 7.69919 10.1932 7.90355 10.1749 8.05539L10.184 8.04451ZM10.6203 5.17996C10.8247 3.87197 11.8841 2.82173 13.1921 2.61737C14.2065 2.4572 15.1941 2.7867 15.9057 3.50744C16.6172 4.22817 16.9292 5.22502 16.7599 6.23938C16.5555 7.46728 15.612 8.47246 14.4016 8.73107C13.6717 8.89123 12.951 8.80197 12.3104 8.49083C12.0526 8.35736 11.7673 8.29479 11.4829 8.29479C11.3319 8.29479 11.1892 8.31231 11.0466 8.34818L11.0733 8.15215C11.1175 7.76926 11.0733 7.40473 10.9131 7.10191C10.6195 6.51465 10.5127 5.84731 10.6195 5.17997L10.6203 5.17996Z" fill="#222222"/>
<path d="M11.9283 6.14095C12.1777 6.14095 12.3729 5.94492 12.3729 5.69635C12.3729 5.44692 12.1769 5.25174 11.9283 5.25174C11.6789 5.25174 11.4837 5.44777 11.4837 5.69635C11.4837 5.94577 11.6881 6.14095 11.9283 6.14095Z" fill="#222222"/>
<path d="M13.7076 6.14095C13.957 6.14095 14.1522 5.94492 14.1522 5.69635C14.1522 5.44692 13.9562 5.25174 13.7076 5.25174C13.4582 5.25174 13.263 5.44777 13.263 5.69635C13.263 5.94577 13.4674 6.14095 13.7076 6.14095Z" fill="#222222"/>
<path d="M15.4869 6.14095C15.7363 6.14095 15.9315 5.94492 15.9315 5.69635C15.9315 5.44692 15.7355 5.25174 15.4869 5.25174C15.2375 5.25174 15.0423 5.44777 15.0423 5.69635C15.0423 5.94577 15.2467 6.14095 15.4869 6.14095Z" fill="#222222"/>
</svg>
