<svg width="20" height="20" viewBox="0 0 20 20" fill="none" xmlns="http://www.w3.org/2000/svg">
<path fill-rule="evenodd" clip-rule="evenodd" d="M2.88976 4.58716H16.2756C16.6 4.5876 16.9111 4.72272 17.1405 4.96288C17.3699 5.20305 17.4989 5.52866 17.4993 5.86831V14.9729C17.4989 15.3125 17.3698 15.638 17.1404 15.8782C16.911 16.1183 16.6 16.2534 16.2756 16.2538H2.88976C2.56536 16.2534 2.25437 16.1183 2.02497 15.8782C1.79557 15.638 1.66648 15.3125 1.66602 14.9729V5.86831C1.66643 5.52866 1.7955 5.20305 2.0249 4.96288C2.25431 4.72272 2.56533 4.5876 2.88976 4.58716ZM2.40825 14.8706L7.26046 10.4205L2.40825 5.97035V14.8706ZM7.82184 10.9351L2.87023 15.4764C2.87656 15.4764 2.88325 15.4764 2.88976 15.4764H16.2756C16.2821 15.4764 16.2888 15.4764 16.2951 15.4764L11.3433 10.9351L10.3881 11.8114C10.166 12.0176 9.87949 12.1314 9.58268 12.1314C9.28588 12.1314 8.99936 12.0176 8.77729 11.8114L7.82184 10.9351ZM11.9049 10.4205L16.7571 14.8706V5.97035L11.9049 10.4205ZM2.87023 5.36458L9.26443 11.2287C9.35246 11.3095 9.46557 11.3541 9.58268 11.3541C9.69979 11.3541 9.8129 11.3095 9.90093 11.2287L16.2951 5.36458C16.2886 5.36458 16.2821 5.36458 16.2756 5.36458H2.88976C2.88325 5.36421 2.87656 5.36421 2.87023 5.36458Z" fill="#222222"/>
</svg>
