<svg width="100" height="44" viewBox="0 0 100 44" fill="none" xmlns="http://www.w3.org/2000/svg">
<rect y="0.000619888" width="100" height="44" rx="22" fill="#296BFF" fill-opacity="0.05"/>
<path fill-rule="evenodd" clip-rule="evenodd" d="M35.75 22.0006C35.75 21.8017 35.671 21.6109 35.5303 21.4703C35.3897 21.3296 35.1989 21.2506 35 21.2506H21C20.8011 21.2506 20.6103 21.3296 20.4697 21.4703C20.329 21.6109 20.25 21.8017 20.25 22.0006C20.25 22.1995 20.329 22.3903 20.4697 22.5309C20.6103 22.6716 20.8011 22.7506 21 22.7506H35C35.1989 22.7506 35.3897 22.6716 35.5303 22.5309C35.671 22.3903 35.75 22.1995 35.75 22.0006ZM35.75 17.0006C35.75 16.8017 35.671 16.6109 35.5303 16.4703C35.3897 16.3296 35.1989 16.2506 35 16.2506H21C20.8011 16.2506 20.6103 16.3296 20.4697 16.4703C20.329 16.6109 20.25 16.8017 20.25 17.0006C20.25 17.1995 20.329 17.3903 20.4697 17.5309C20.6103 17.6716 20.8011 17.7506 21 17.7506H35C35.1989 17.7506 35.3897 17.6716 35.5303 17.5309C35.671 17.3903 35.75 17.1995 35.75 17.0006ZM35.75 27.0006C35.75 26.8017 35.671 26.6109 35.5303 26.4703C35.3897 26.3296 35.1989 26.2506 35 26.2506H21C20.8011 26.2506 20.6103 26.3296 20.4697 26.4703C20.329 26.6109 20.25 26.8017 20.25 27.0006C20.25 27.1995 20.329 27.3903 20.4697 27.5309C20.6103 27.6716 20.8011 27.7506 21 27.7506H35C35.1989 27.7506 35.3897 27.6716 35.5303 27.5309C35.671 27.3903 35.75 27.1995 35.75 27.0006Z" fill="#222222"/>
<path d="M84 22.0006C84 30.8372 76.8366 38.0006 68 38.0006C59.1634 38.0006 52 30.8372 52 22.0006C52 13.1641 59.1634 6.00062 68 6.00062C76.8366 6.00062 84 13.1641 84 22.0006Z" fill="#6A6A6A" fill-opacity="0.2"/>
<path fill-rule="evenodd" clip-rule="evenodd" d="M57.4207 34.0041C58.4119 29.0677 62.7717 25.3495 68 25.3495C73.2283 25.3495 77.5881 29.0677 78.5793 34.0041C81.9033 31.0723 84 26.7813 84 22.0006C84 13.1641 76.8366 6.00062 68 6.00062C59.1634 6.00062 52 13.1641 52 22.0006C52 26.7813 54.0967 31.0723 57.4207 34.0041ZM73.9535 17.1634C73.9535 20.4514 71.288 23.1169 68 23.1169C64.712 23.1169 62.0465 20.4514 62.0465 17.1634C62.0465 13.8754 64.712 11.2099 68 11.2099C71.288 11.2099 73.9535 13.8754 73.9535 17.1634Z" fill="white"/>
</svg>
